<?xml version="1.0" standalone="no"?>
<!DOCTYPE svg PUBLIC "-//W3C//DTD SVG 20010904//EN"
 "http://www.w3.org/TR/2001/REC-SVG-20010904/DTD/svg10.dtd">
<svg version="1.0" xmlns="http://www.w3.org/2000/svg"
 width="447.000000pt" height="559.000000pt" viewBox="0 0 447.000000 559.000000"
 preserveAspectRatio="xMidYMid meet">

<g transform="translate(0.000000,559.000000) scale(0.100000,-0.100000)"
fill="#000000" stroke="none">
<path d="M2127 3978 c-4 -99 -7 -210 -7 -245 l0 -63 45 0 44 0 3 78 3 77 55
-77 55 -77 48 0 48 -1 -33 48 c-18 26 -47 67 -65 90 -18 24 -30 49 -26 55 4 7
31 42 60 79 29 37 53 69 53 72 0 4 -19 6 -43 6 -41 0 -45 -3 -92 -65 -27 -36
-52 -65 -57 -65 -4 0 -8 61 -8 135 l0 135 -38 0 -39 0 -6 -182z"/>
<path d="M2680 3933 c-32 -65 -80 -156 -105 -202 -26 -46 -43 -87 -38 -91 4
-4 51 -29 103 -56 179 -90 277 -65 351 91 49 101 36 190 -34 252 -32 28 -194
123 -210 123 -4 0 -34 -53 -67 -117z m172 -22 c59 -37 78 -66 78 -116 -1 -86
-77 -185 -143 -185 -38 0 -137 44 -137 61 0 21 134 269 145 269 6 0 32 -13 57
-29z"/>
<path d="M1887 3976 c-87 -24 -135 -95 -123 -182 17 -126 106 -194 216 -164
50 13 105 64 116 104 8 32 8 31 -33 39 -30 6 -34 4 -47 -27 -18 -44 -63 -63
-103 -44 -58 27 -85 146 -43 188 22 22 70 26 102 9 16 -9 24 -7 44 12 30 28
30 35 2 53 -36 22 -79 26 -131 12z"/>
<path d="M1504 3804 c-46 -31 -60 -48 -80 -93 -16 -36 -12 -45 24 -56 16 -5
24 -2 29 12 22 61 81 105 109 82 23 -19 16 -39 -35 -95 -27 -29 -51 -65 -55
-79 -16 -62 58 -136 120 -121 35 9 94 68 94 94 0 18 5 20 34 15 59 -9 111 44
73 75 -7 6 -22 9 -33 6 -17 -4 -30 10 -74 76 -29 45 -63 88 -74 96 -32 22 -88
17 -132 -12z m161 -164 c20 -40 19 -60 -7 -87 -36 -39 -88 -22 -88 29 0 15 59
88 71 88 5 0 15 -13 24 -30z"/>
<path d="M1280 3615 l-34 -35 -26 25 c-14 14 -29 25 -32 25 -3 0 -15 -15 -26
-34 l-20 -34 24 -23 c22 -21 23 -24 7 -41 -15 -17 -15 -20 7 -43 24 -25 24
-25 43 -6 20 19 21 19 96 -46 85 -73 112 -87 152 -78 32 7 99 77 99 103 0 10
-12 22 -28 28 -26 10 -30 8 -45 -18 -9 -16 -25 -28 -36 -28 -16 0 -161 113
-161 125 0 2 6 10 13 17 51 56 51 56 32 78 -24 26 -25 26 -65 -15z"/>
<path d="M3045 3608 c-32 -17 -85 -71 -101 -100 -33 -64 -2 -170 65 -217 40
-29 109 -39 117 -17 11 29 -4 65 -25 59 -11 -3 -32 7 -55 27 -40 36 -48 80
-21 116 15 18 16 18 42 -11 14 -16 50 -56 78 -88 l53 -58 41 42 c70 72 68 135
-8 211 -47 47 -50 48 -107 48 -32 0 -68 -6 -79 -12z m142 -80 c26 -24 31 -79
10 -96 -10 -9 -26 1 -66 42 -49 49 -52 55 -35 65 30 17 66 13 91 -11z"/>
<path d="M998 3405 c-50 -34 -88 -113 -88 -183 0 -50 3 -58 36 -88 31 -30 42
-34 87 -34 51 0 52 0 122 75 74 80 98 90 130 55 39 -43 -8 -136 -82 -161 -18
-6 -33 -13 -33 -15 0 -5 30 -66 35 -72 7 -8 64 23 93 51 80 77 107 196 57 256
-31 36 -85 55 -134 47 -29 -4 -50 -21 -106 -80 -58 -62 -74 -74 -93 -69 -64
16 -43 109 38 166 20 14 20 15 3 46 -10 17 -20 31 -23 31 -3 0 -22 -11 -42
-25z"/>
<path d="M3248 3259 c-71 -67 -128 -127 -128 -135 0 -8 9 -32 19 -52 l19 -37
93 7 c52 3 128 7 169 7 98 2 108 8 86 56 -12 25 -22 34 -34 31 -34 -9 -242
-18 -242 -10 0 5 42 47 94 93 l93 85 -15 38 c-8 21 -18 38 -21 38 -3 0 -63
-55 -133 -121z"/>
<path d="M3293 2939 c-58 -29 -83 -72 -83 -143 0 -61 19 -110 54 -138 30 -25
42 -22 56 11 10 26 9 31 -14 54 -37 37 -36 97 0 126 52 41 57 31 70 -123 l7
-88 44 6 c96 13 138 57 138 145 0 66 -25 115 -75 148 -45 31 -137 32 -197 2z
m190 -87 c36 -32 12 -122 -33 -122 -21 0 -30 28 -30 98 0 51 1 53 23 46 12 -3
30 -13 40 -22z"/>
<path d="M968 2817 l-178 -10 0 -43 0 -44 103 5 c56 3 121 8 143 10 80 8 70
-2 -138 -142 l-98 -65 0 -55 0 -55 78 6 c42 3 145 9 227 12 l150 6 -72 -75
c-45 -46 -73 -83 -73 -97 l0 -21 -27 19 c-43 30 -68 34 -106 19 -91 -38 -98
-112 -26 -265 44 -91 44 -92 69 -79 57 30 377 177 385 177 5 0 -2 -11 -15 -25
l-24 -25 31 -33 c18 -17 53 -54 78 -81 l46 -49 -45 -46 -46 -46 -68 68 -68 68
-24 -26 -24 -25 62 -63 c34 -34 62 -67 62 -73 0 -5 -16 -25 -35 -44 l-35 -34
-78 77 -78 78 -23 -25 c-28 -30 -35 -19 94 -153 l90 -93 163 161 c89 89 162
164 162 168 0 3 -49 55 -109 115 -76 76 -114 122 -126 152 l-16 43 -77 -36
c-109 -50 -108 -50 -121 -12 -19 56 -14 71 54 139 l66 66 -21 48 c-11 26 -20
63 -20 82 l0 35 -72 -5 c-200 -15 -248 -16 -248 -9 1 4 70 55 155 113 l154
105 1 48 0 47 -52 -2 c-29 -1 -133 -6 -230 -11z m102 -607 c16 -9 60 -89 60
-109 0 -4 -25 -19 -56 -33 l-56 -27 -25 56 c-21 45 -23 59 -14 79 16 36 58 51
91 34z"/>
<path d="M3226 2571 c-20 -22 -37 -77 -29 -97 7 -19 63 -19 63 0 0 36 23 36
260 2 91 -13 166 -23 166 -22 1 0 5 19 8 42 l7 40 -193 27 c-230 32 -259 33
-282 8z"/>
<path d="M3222 2409 c-84 -42 -122 -162 -76 -240 59 -100 223 -126 291 -45
106 126 43 276 -127 300 -35 5 -54 2 -88 -15z m122 -83 c46 -19 79 -63 71 -96
-16 -63 -70 -85 -139 -56 -74 31 -96 87 -55 140 24 30 69 35 123 12z"/>
<path d="M2942 2217 c-12 -13 -22 -27 -22 -33 0 -5 29 -34 64 -64 63 -54 64
-55 38 -61 -106 -23 -146 -143 -78 -232 46 -60 111 -97 170 -97 28 0 58 6 66
13 38 30 60 71 60 110 0 40 0 40 21 22 20 -19 20 -18 44 10 13 17 24 33 25 36
0 5 -93 90 -289 263 -35 31 -67 56 -71 56 -3 0 -16 -10 -28 -23z m207 -245
c48 -46 60 -82 37 -118 -40 -59 -97 -53 -161 17 -39 43 -42 57 -20 99 17 32
27 38 72 39 24 1 42 -8 72 -37z"/>
<path d="M1641 1838 c-5 -13 -41 -104 -81 -203 -40 -99 -74 -185 -77 -191 -2
-6 20 -21 48 -33 62 -25 40 -41 185 129 54 63 102 117 107 119 6 2 7 -33 3
-90 -3 -52 -7 -134 -8 -184 l-3 -90 53 -19 c29 -10 54 -17 56 -15 5 7 166 415
166 422 0 6 -70 31 -74 25 -2 -1 -27 -65 -56 -140 -30 -76 -57 -138 -62 -138
-5 0 -7 24 -4 53 3 28 7 104 8 166 l3 115 -34 10 c-38 11 -40 9 -184 -162 -34
-40 -63 -68 -65 -63 -2 5 22 70 52 145 l54 136 -35 15 c-45 19 -42 19 -52 -7z"/>
<path d="M2742 1847 c-52 -16 -112 -76 -119 -118 -5 -35 -4 -37 26 -41 28 -4
34 -1 45 27 28 65 102 86 145 41 l22 -24 -33 -19 c-18 -11 -63 -37 -100 -57
-38 -20 -68 -41 -68 -45 0 -18 48 -77 79 -98 19 -13 46 -23 60 -23 38 1 102
33 136 69 27 29 30 38 30 99 -1 55 -5 74 -27 107 -32 50 -54 69 -97 84 -40 13
-54 13 -99 -2z m148 -205 c0 -41 -18 -64 -58 -77 -25 -7 -72 17 -72 38 0 11
104 76 123 77 4 0 7 -17 7 -38z"/>
<path d="M2503 1743 c-28 -5 -28 -10 -3 -104 35 -132 22 -189 -43 -189 -25 0
-27 -3 -27 -40 0 -36 2 -40 26 -40 38 0 63 17 78 53 l13 32 8 -28 c7 -27 10
-28 44 -22 20 4 38 9 40 11 4 3 -8 55 -61 257 -21 80 -21 80 -75 70z"/>
</g>
</svg>
